<?xml version="1.0" encoding="UTF-8"?>
<svg version="1.1" xmlns="http://www.w3.org/2000/svg" width="512" height="512">
<path d="M0 0 C1.14866043 -0.00101212 1.14866043 -0.00101212 2.32052612 -0.00204468 C13.39414923 0.01349002 23.8636571 0.41197093 34.625 3.25 C35.94917385 3.55878635 37.27339408 3.86737388 38.59765625 4.17578125 C63.99951667 10.50291842 86.29976835 24.88074754 104.625 43.25 C105.91277344 44.52037109 105.91277344 44.52037109 107.2265625 45.81640625 C132.57881885 72.17470452 145.11972469 107.85960121 144.9375 144 C144.93476578 145.1256839 144.93476578 145.1256839 144.93197632 146.27410889 C144.88726943 157.20093885 144.50833081 167.64715403 141.625 178.25 C141.35163818 179.25619385 141.35163818 179.25619385 141.07275391 180.28271484 C133.76378957 206.59376523 120.77603969 228.93226228 101.625 248.25 C100.77550781 249.11238281 99.92601562 249.97476563 99.05078125 250.86328125 C82.46812942 266.78567436 60.79067356 278.3520689 38.625 284.25 C37.91875488 284.44464844 37.21250977 284.63929688 36.48486328 284.83984375 C14.85702527 290.55373836 -11.68103787 290.9712279 -33.375 285.25 C-34.69917385 284.94121365 -36.02339408 284.63262612 -37.34765625 284.32421875 C-62.74951667 277.99708158 -85.04976835 263.61925246 -103.375 245.25 C-104.23351562 244.40308594 -105.09203125 243.55617188 -105.9765625 242.68359375 C-131.32882996 216.32528393 -143.86970208 180.64040704 -143.6875 144.5 C-143.68567719 143.74921173 -143.68385437 142.99842346 -143.68197632 142.22488403 C-143.63719924 131.27521219 -143.18067962 120.88867905 -140.375 110.25 C-140.06621365 108.92582615 -139.75762612 107.60160592 -139.44921875 106.27734375 C-133.12208158 80.87548333 -118.74425246 58.57523165 -100.375 40.25 C-99.52808594 39.39148438 -98.68117187 38.53296875 -97.80859375 37.6484375 C-71.62217847 12.46150372 -35.87252254 0.02824118 0 0 Z M-80.50097656 67.33056641 C-92.29320459 79.40853628 -101.36829565 95.16228086 -106.375 111.25 C-106.9628125 113.12558594 -106.9628125 113.12558594 -107.5625 115.0390625 C-112.66299657 133.22334768 -112.76206118 155.13383458 -107.375 173.25 C-107.0346875 174.46945312 -106.694375 175.68890625 -106.34375 176.9453125 C-97.60017582 205.7163978 -77.17652629 229.19388615 -50.92578125 243.47265625 C-23.85672511 257.02207379 6.27499718 259.88253502 35.30078125 250.796875 C56.27495317 243.64347913 77.1863381 229.71952828 89.625 211.25 C85.65034762 209.92511587 82.7740372 211.05063026 78.875 212.125 C77.48532821 212.50093733 76.09470255 212.87336713 74.703125 213.2421875 C74.08856445 213.41089355 73.47400391 213.57959961 72.84082031 213.75341797 C42.85777402 220.47284461 9.78770642 213.75495165 -16.13037109 197.81982422 C-22.71780473 193.56162887 -28.59110206 188.52751016 -34.375 183.25 C-35.10074219 182.60675781 -35.82648438 181.96351563 -36.57421875 181.30078125 C-47.60680371 170.98430728 -55.2942483 157.92989654 -61.375 144.25 C-61.85710937 143.18394531 -62.33921875 142.11789063 -62.8359375 141.01953125 C-73.26373206 116.08762244 -73.32322766 87.08959361 -66.375 61.25 C-66.01563383 59.25451333 -65.67180055 57.25574688 -65.375 55.25 C-70.69747689 55.25 -76.88295895 63.75879938 -80.50097656 67.33056641 Z " fill="#000000" transform="translate(255.375,111.75)"/>
<path d="M0 0 C1.10794922 -0.03867187 1.10794922 -0.03867187 2.23828125 -0.078125 C8.41772688 0.74974331 12.60681056 4.70218025 16.85546875 8.94921875 C17.41696121 9.50309769 17.97845367 10.05697662 18.55696106 10.62763977 C19.73639463 11.79631791 20.91193299 12.96893892 22.08374023 14.14526367 C23.8664616 15.92895694 25.66942568 17.69025096 27.47460938 19.45117188 C28.62369569 20.59504987 29.77152497 21.7401923 30.91796875 22.88671875 C31.71958687 23.66374397 31.71958687 23.66374397 32.53739929 24.45646667 C36.63567405 28.63086961 39.50065751 33.3319915 39.78581238 39.31156921 C39.40189006 44.23778902 37.83000381 47.51296845 34.6875 51.25 C30.46833567 54.71909068 27.16570753 56.15714902 21.6875 56.25 C14.97997012 54.84494628 10.66269128 52.10456424 5.97265625 47.2265625 C5.39084091 46.6433725 4.80902557 46.0601825 4.20957947 45.45932007 C2.99345705 44.23420131 1.78456491 43.0018658 0.58276367 41.76269531 C-1.25391432 39.87096836 -3.11376275 38.00464285 -4.97851562 36.140625 C-6.16288728 34.94151387 -7.34587999 33.74103883 -8.52734375 32.5390625 C-9.07937973 31.98368805 -9.63141571 31.4283136 -10.20018005 30.85610962 C-14.37458487 26.52546213 -16.59264853 22.86222446 -16.625 16.8125 C-16.4874804 11.93459906 -15.40954377 8.36423265 -11.8828125 4.80859375 C-8.0432214 1.45611496 -5.03361502 0.10432363 0 0 Z " fill="#000000" transform="translate(380.3125,363.75)"/>
<path d="M0 0 C3.58956634 3.9314298 5.47679665 7.58365055 5.71875 12.95703125 C5.12780235 20.68367174 0.17836112 25.63176953 -5.05859375 30.859375 C-5.59597672 31.40104309 -6.13335968 31.94271118 -6.68702698 32.50079346 C-7.81656273 33.63603637 -8.94867957 34.76871651 -10.08325195 35.89892578 C-11.81290282 37.62540208 -13.52875867 39.36482813 -15.24414062 41.10546875 C-16.34814733 42.21174743 -17.45293867 43.31724376 -18.55859375 44.421875 C-19.06708359 44.93957458 -19.57557343 45.45727417 -20.09947205 45.99066162 C-24.26970805 50.10758501 -27.93237986 52.15605551 -33.8125 52.1875 C-38.69040094 52.0499804 -42.26076735 50.97204377 -45.81640625 47.4453125 C-49.16888504 43.6057214 -50.52067637 40.59611502 -50.625 35.5625 C-50.66367187 34.45455078 -50.66367187 34.45455078 -50.703125 33.32421875 C-49.87753359 27.16176858 -45.93546652 22.95842397 -41.7109375 18.70703125 C-41.15943024 18.14553879 -40.60792297 17.58404633 -40.03970337 17.00553894 C-38.8753121 15.82602957 -37.70688464 14.65049245 -36.53466797 13.47875977 C-34.76009241 11.69762968 -33.01090964 9.89391176 -31.26171875 8.08789062 C-21.81048027 -1.5075041 -12.97439512 -8.1690636 0 0 Z " fill="#000000" transform="translate(414.375,96.125)"/>
<path d="M0 0 C4.1796989 2.8497947 7.11864324 5.98092971 8.75 10.875 C8.953125 12.92578125 8.953125 12.92578125 9 15.1875 C9.02578125 15.92613281 9.0515625 16.66476562 9.078125 17.42578125 C8.25253359 23.58823142 4.31046652 27.79157603 0.0859375 32.04296875 C-0.46556976 32.60446121 -1.01707703 33.16595367 -1.58529663 33.74446106 C-2.7496879 34.92397043 -3.91811536 36.09950755 -5.09033203 37.27124023 C-6.86490759 39.05237032 -8.61409036 40.85608824 -10.36328125 42.66210938 C-21.8041813 54.27751324 -21.8041813 54.27751324 -29.25 54.875 C-35.54565258 54.44483888 -39.94840055 52.68869462 -44.25 47.875 C-46.67079613 43.45404253 -47.65317528 39.31876095 -46.875 34.3125 C-44.02487143 24.9624533 -34.3101011 17.72255264 -27.625 11 C-26.68747115 10.04169489 -25.74997099 9.08336171 -24.8125 8.125 C-23.91273437 7.22007812 -23.01296875 6.31515625 -22.0859375 5.3828125 C-21.27688965 4.56441895 -20.4678418 3.74602539 -19.63427734 2.90283203 C-13.85562283 -2.01192369 -6.99519605 -2.42141402 0 0 Z " fill="#000000" transform="translate(139.25,365.125)"/>
<path d="M0 0 C5.84910169 5.27762403 11.48806748 10.75380588 17.07397461 16.30859375 C18.03227972 17.2461226 18.9906129 18.18362276 19.94897461 19.12109375 C21.30635742 20.47074219 21.30635742 20.47074219 22.69116211 21.84765625 C23.50955566 22.6567041 24.32794922 23.46575195 25.17114258 24.29931641 C28.94301642 28.73419721 29.60422561 32.83116106 29.44506836 38.4765625 C28.9062732 43.30861433 26.76347236 46.3838084 23.19897461 49.49609375 C19.65376033 52.08114583 17.17391537 52.84473487 12.88647461 52.93359375 C12.1478418 52.959375 11.40920898 52.98515625 10.64819336 53.01171875 C4.48574319 52.18612734 0.28239858 48.24406027 -3.96899414 44.01953125 C-4.81123283 43.19227036 -4.81123283 43.19227036 -5.67048645 42.34829712 C-6.84999582 41.18390585 -8.02553294 40.01547839 -9.19726562 38.84326172 C-10.97839571 37.06868616 -12.78211363 35.31950339 -14.58813477 33.5703125 C-26.20353863 22.12941245 -26.20353863 22.12941245 -26.80102539 14.68359375 C-26.37086427 8.38794117 -24.61472001 3.9851932 -19.80102539 -0.31640625 C-13.29260653 -3.88023949 -6.21916139 -4.54571211 0 0 Z " fill="#000000" transform="translate(118.801025390625,95.31640625)"/>
<path d="M0 0 C4.96592669 2.30560882 7.41978039 5.22082111 10 10 C10.57098662 13.33824707 10.56124181 16.61943061 10.53125 20 C10.5350769 20.95390625 10.53890381 21.9078125 10.54284668 22.890625 C10.54556036 24.90105245 10.53823737 26.91151553 10.52148438 28.921875 C10.50006709 31.99038787 10.52130466 35.05655952 10.546875 38.125 C10.54423163 40.08333848 10.53910645 42.0416755 10.53125 44 C10.53934692 44.91265625 10.54744385 45.8253125 10.55578613 46.765625 C10.47405684 52.34723968 9.72311686 55.57473138 6 60 C2.18069828 63.62833663 -0.88279006 64.31000458 -6 64.5 C-11.11720994 64.31000458 -14.18069828 63.62833663 -18 60 C-22.42898965 54.73573631 -22.58960225 50.57725694 -22.53125 44 C-22.5350769 43.04609375 -22.53890381 42.0921875 -22.54284668 41.109375 C-22.54556036 39.09894755 -22.53823737 37.08848447 -22.52148438 35.078125 C-22.50006709 32.00961213 -22.52130466 28.94344048 -22.546875 25.875 C-22.54423163 23.91666152 -22.53910645 21.9583245 -22.53125 20 C-22.53934692 19.08734375 -22.54744385 18.1746875 -22.55578613 17.234375 C-22.47405684 11.65276032 -21.72311686 8.42526862 -18 4 C-12.72867143 -1.00776214 -6.89190982 -0.92775709 0 0 Z " fill="#000000" transform="translate(262,416)"/>
<path d="M0 0 C0.95390625 -0.0038269 1.9078125 -0.00765381 2.890625 -0.01159668 C4.90105245 -0.01431036 6.91151553 -0.00698737 8.921875 0.00976562 C11.99038787 0.03118291 15.05655952 0.00994534 18.125 -0.015625 C20.08333848 -0.01298163 22.0416755 -0.00785645 24 0 C25.36898437 -0.01214539 25.36898437 -0.01214539 26.765625 -0.02453613 C32.34723968 0.05719316 35.57473138 0.80813314 40 4.53125 C43.62833663 8.35055172 44.31000458 11.41404006 44.5 16.53125 C44.31000458 21.64845994 43.62833663 24.71194828 40 28.53125 C34.73573631 32.96023965 30.57725694 33.12085225 24 33.0625 C22.56914062 33.06824036 22.56914062 33.06824036 21.109375 33.07409668 C19.09894755 33.07681036 17.08848447 33.06948737 15.078125 33.05273438 C12.00961213 33.03131709 8.94344048 33.05255466 5.875 33.078125 C3.91666152 33.07548163 1.9583245 33.07035645 0 33.0625 C-1.36898438 33.07464539 -1.36898438 33.07464539 -2.765625 33.08703613 C-8.34723968 33.00530684 -11.57473138 32.25436686 -16 28.53125 C-19.62833663 24.71194828 -20.31000458 21.64845994 -20.5 16.53125 C-20.31000458 11.41404006 -19.62833663 8.35055172 -16 4.53125 C-10.73573631 0.10226035 -6.57725694 -0.05835225 0 0 Z " fill="#000000" transform="translate(436,239.46875)"/>
<path d="M0 0 C0.95390625 -0.0038269 1.9078125 -0.00765381 2.890625 -0.01159668 C4.90105245 -0.01431036 6.91151553 -0.00698737 8.921875 0.00976562 C11.99038787 0.03118291 15.05655952 0.00994534 18.125 -0.015625 C20.08333848 -0.01298163 22.0416755 -0.00785645 24 0 C25.36898437 -0.01214539 25.36898437 -0.01214539 26.765625 -0.02453613 C32.34723968 0.05719316 35.57473138 0.80813314 40 4.53125 C43.62833663 8.35055172 44.31000458 11.41404006 44.5 16.53125 C44.31000458 21.64845994 43.62833663 24.71194828 40 28.53125 C34.73573631 32.96023965 30.57725694 33.12085225 24 33.0625 C22.56914063 33.06824036 22.56914063 33.06824036 21.109375 33.07409668 C19.09894755 33.07681036 17.08848447 33.06948737 15.078125 33.05273438 C12.00961213 33.03131709 8.94344048 33.05255466 5.875 33.078125 C3.91666152 33.07548163 1.9583245 33.07035645 0 33.0625 C-1.36898437 33.07464539 -1.36898437 33.07464539 -2.765625 33.08703613 C-8.34723968 33.00530684 -11.57473138 32.25436686 -16 28.53125 C-19.62833663 24.71194828 -20.31000458 21.64845994 -20.5 16.53125 C-20.31000458 11.41404006 -19.62833663 8.35055172 -16 4.53125 C-10.73573631 0.10226035 -6.57725694 -0.05835225 0 0 Z " fill="#000000" transform="translate(52,239.46875)"/>
<path d="M0 0 C4.96592669 2.30560882 7.41978039 5.22082111 10 10 C10.57098662 13.33824707 10.56124181 16.61943061 10.53125 20 C10.5350769 20.95390625 10.53890381 21.9078125 10.54284668 22.890625 C10.54556036 24.90105245 10.53823737 26.91151553 10.52148438 28.921875 C10.50006709 31.99038787 10.52130466 35.05655952 10.546875 38.125 C10.54423163 40.08333848 10.53910645 42.0416755 10.53125 44 C10.53934692 44.91265625 10.54744385 45.8253125 10.55578613 46.765625 C10.47405684 52.34723968 9.72311686 55.57473138 6 60 C2.18069828 63.62833663 -0.88279006 64.31000458 -6 64.5 C-11.11720994 64.31000458 -14.18069828 63.62833663 -18 60 C-22.42898965 54.73573631 -22.58960225 50.57725694 -22.53125 44 C-22.5350769 43.04609375 -22.53890381 42.0921875 -22.54284668 41.109375 C-22.54556036 39.09894755 -22.53823737 37.08848447 -22.52148438 35.078125 C-22.50006709 32.00961213 -22.52130466 28.94344048 -22.546875 25.875 C-22.54423163 23.91666152 -22.53910645 21.9583245 -22.53125 20 C-22.53934692 19.08734375 -22.54744385 18.1746875 -22.55578613 17.234375 C-22.47405684 11.65276032 -21.72311686 8.42526862 -18 4 C-12.72867143 -1.00776214 -6.89190982 -0.92775709 0 0 Z " fill="#000000" transform="translate(262,32)"/>
</svg>
