<?xml version="1.0" encoding="UTF-8" standalone="no"?>
<!-- Created with Inkscape (http://www.inkscape.org/) -->

<svg
   version="1.1"
   id="svg1"
   width="633.13062"
   height="499.74088"
   viewBox="0 0 633.13062 499.74088"
   xmlns="http://www.w3.org/2000/svg"
   xmlns:svg="http://www.w3.org/2000/svg">
  <defs
     id="defs1" />
  <g
     id="g1"
     style="fill:#01a56d;fill-opacity:1"
     transform="translate(-1139.718,-289.04227)">
    <g
       id="g15">
      <path
         style="fill:#01a56d;fill-opacity:1"
         id="rect1"
         width="123.4288"
         height="118.22632"
         x="1139.718"
         y="476.05411"
         d="m 1149.264,476.05411 113.8828,0 V 594.28043 H 1151.493 a 11.774985,11.774985 45 0 1 -11.775,-11.77499 v -96.90539 a 9.5459415,9.5459415 135 0 1 9.546,-9.54594 z" />
      <rect
         style="display:inline;fill:#01a56d;fill-opacity:1"
         id="rect2"
         width="224.96875"
         height="240.88672"
         x="1274.3086"
         y="414.35156"
         ry="12.884766" />
      <path
         style="fill:#01a56d;fill-opacity:1"
         d="m 1253.5484,639.17757 14.2692,9.55975 -21.6441,23.99606 -51.768,0.61596 0.4337,-18.40688 44.3737,-0.14501 z"
         id="path4" />
      <path
         style="fill:#01a56d;fill-opacity:1"
         d="m 1302.7945,663.57828 16.5328,9.63433 -20.8403,24.68797 -4.1543,35.90086 -59.7243,20.64006 -6.9067,-13.16986 49.6011,-17.76054 4.4926,-33.38731 z"
         id="path5" />
      <path
         style="fill:#01a56d;fill-opacity:1"
         d="m 1340.7131,661.19456 8.8969,1.30925 -8.2077,31.83638 -9.4562,8.51842 -7.6456,-5.99936 9.238,-9.22829 z"
         id="path6" />
      <path
         style="fill:#01a56d;fill-opacity:1"
         d="m 1392.8595,664.92068 5.1804,39.82447 10.503,12.27908 10.4257,-9.76968 -12.3482,-9.00594 -4.5216,-34.09995 z"
         id="path7" />
      <path
         style="fill:#01a56d;fill-opacity:1"
         d="m 1464.0881,666.25755 h 5.904 l 12.5719,-0.0884 10.9325,27.1739 -13.1837,38.34949 17.9166,48.77932 -5.6471,8.31127 -13.0387,-9.61362 -16.9305,-46.02271 12.7155,-39.02483 z"
         id="path8" />
      <path
         style="fill:#01a56d;fill-opacity:1"
         d="m 1509.7152,641.73692 -10.0163,17.42747 19.5186,17.4125 3.037,30.86411 17.9109,-1.92385 -5.906,-37.88798 z"
         id="path9" />
      <path
         style="fill:#01a56d;fill-opacity:1"
         d="m 1507.4315,576.26578 -0.5925,15.52459 20.3514,14.15733 11.5057,12.86188 9.6772,-7.05311 -14.9073,-16.58525 z"
         id="path10" />
      <path
         style="fill:#01a56d;fill-opacity:1"
         d="m 1264.1895,433.20096 -1.2125,-5.11133 0.4184,-14.25539 -20.2464,-13.2914 1.4183,-16.59905 -18.2425,-12.49176 -5.1472,15.01635 9.7089,8.2284 -0.9019,15.16137 z"
         id="path17" />
      <circle
         style="fill:#01a56d;fill-opacity:1;stroke-width:0.973739"
         id="path1"
         cx="1730.3486"
         cy="545.65118"
         r="42.5" />
      <path
         style="fill:#01a56d;fill-opacity:1"
         d="m 1504.4592,526.33763 c 0.4835,4.10273 0.077,36.18601 0.077,36.18601 l 195.5257,-2.1307 0.2758,-27.50643 z"
         id="path2" />
      <path
         style="fill:#01a56d;fill-opacity:1"
         d="m 1505.7191,465.31046 0.049,14.59 26.1936,-0.39667 23.7569,12.97687 7.7881,-13.12043 -31.5091,-15.13401 z"
         id="path3" />
      <path
         style="fill:#01a56d;fill-opacity:1"
         d="m 1497.321,407.89868 8.9629,21.39388 58.6528,-22.42145 -7.057,-13.54544 -43.1958,17.38938 z"
         id="path11" />
      <path
         style="fill:#01a56d;fill-opacity:1"
         d="m 1449.3443,406.79366 18.8835,0.37589 3.9686,-48.49608 54.059,-22.81058 -7.6123,-16.03125 -60.929,25.3984 z"
         id="path12" />
      <path
         style="fill:#01a56d;fill-opacity:1"
         d="m 1406.634,409.40037 9.5881,-0.70457 4.2614,-24.85439 9.5221,-14.67878 -12.9221,-4.53152 -8.5795,17.02483 z"
         id="path13" />
      <path
         style="fill:#01a56d;fill-opacity:1"
         d="m 1344.5547,402.20548 15.9085,-0.0774 -0.3929,-27.70854 -11.2844,-18.56996 -10.9142,7.6709 7.8069,13.78344 z"
         id="path14" />
      <path
         style="fill:#01a56d;fill-opacity:1"
         d="m 1300.1727,406.45554 -12.7087,-19.39352 14.5768,-52.07748 -25.6175,-45.94227 -12.9183,4.52774 18.0429,41.21997 -13.7456,57.94635 17.3214,13.16009 z"
         id="path15" />
    </g>
  </g>
</svg>
